<?xml version="1.0" encoding="UTF-8"?>
<svg id="Layer_1" data-name="Layer 1" xmlns="http://www.w3.org/2000/svg" viewBox="0 0 389.54 199.76">
  <defs>
    <style>
      .cls-1 {
        fill: #2445ea;
      }

      .cls-1, .cls-2 {
        stroke-width: 0px;
      }

      .cls-2 {
        fill: #d8305c;
      }
    </style>
  </defs>
  <path class="cls-2" d="M143.86,128.29c3.3,0,6.02-.27,8.18-.83,2.15-.55,3.87-1.3,5.17-2.25,1.3-.95,2.2-2.07,2.7-3.38.5-1.3.75-2.75.75-4.35,0-3.4-1.6-6.22-4.8-8.47-3.2-2.25-8.7-4.67-16.5-7.28-3.4-1.2-6.8-2.57-10.2-4.12-3.4-1.55-6.45-3.5-9.15-5.85-2.7-2.35-4.9-5.2-6.6-8.55-1.7-3.35-2.55-7.42-2.55-12.23s.9-9.12,2.7-12.97c1.8-3.85,4.35-7.12,7.65-9.83s7.3-4.77,12-6.22c4.7-1.45,10-2.17,15.9-2.17,7,0,13.05.75,18.15,2.25s9.3,3.15,12.6,4.95l-6.75,18.45c-2.9-1.5-6.13-2.82-9.67-3.97-3.55-1.15-7.83-1.73-12.83-1.73-5.6,0-9.62.78-12.07,2.33-2.45,1.55-3.68,3.93-3.68,7.12,0,1.9.45,3.5,1.35,4.8.9,1.3,2.17,2.48,3.83,3.53,1.65,1.05,3.55,2,5.7,2.85,2.15.85,4.52,1.73,7.12,2.62,5.4,2,10.1,3.98,14.1,5.93,4,1.95,7.32,4.23,9.97,6.82,2.65,2.6,4.62,5.65,5.92,9.15,1.3,3.5,1.95,7.75,1.95,12.75,0,9.7-3.4,17.23-10.2,22.58-6.8,5.35-17.05,8.02-30.75,8.02-4.6,0-8.75-.28-12.45-.82-3.7-.55-6.98-1.23-9.83-2.03-2.85-.8-5.3-1.65-7.35-2.55-2.05-.9-3.78-1.75-5.17-2.55l6.6-18.6c3.1,1.7,6.92,3.23,11.47,4.58,4.55,1.35,10.12,2.03,16.72,2.03Z"/>
  <path class="cls-1" d="M264.09,146.14c-2.11-3.38-4.59-7.04-7.45-10.97-2.86-3.93-5.94-7.89-9.24-11.88-3.3-3.99-6.76-7.82-10.37-11.48s-7.22-6.9-10.82-9.7v44.03h-23.4V42.19h23.4v39.07c6.02-6.32,12.13-12.93,18.33-19.83,6.21-6.9,11.94-13.31,17.2-19.24h27.77c-7.07,8.43-14.19,16.53-21.35,24.3-7.16,7.78-14.69,15.6-22.6,23.48,8.32,6.94,16.34,15.16,24.06,24.68,7.72,9.52,15.15,20.02,22.29,31.49h-27.82Z"/>
</svg>